<svg xmlns="http://www.w3.org/2000/svg" xmlns:xlink="http://www.w3.org/1999/xlink" width="168" zoomAndPan="magnify" viewBox="0 0 126 30.000001" height="40" preserveAspectRatio="xMidYMid meet" version="1.0"><defs><clipPath id="8e9593899a"><path d="M 9 12.421875 L 43 12.421875 L 43 26.042969 L 9 26.042969 Z M 9 12.421875 " clip-rule="nonzero"/></clipPath><clipPath id="1574bb1a87"><path d="M 11.714844 0.273438 L 42.609375 0.273438 L 42.609375 22.660156 L 11.714844 22.660156 Z M 11.714844 0.273438 " clip-rule="nonzero"/></clipPath></defs><g clip-path="url(#8e9593899a)"><path fill="#f6f6e9" d="M 22.976562 14.976562 L 9.003906 25.835938 L 23.847656 12.539062 L 28.710938 17.332031 L 28.296875 15.839844 L 30.167969 17.867188 L 32.910156 15.839844 L 42.847656 26.042969 L 39.0625 23.605469 L 34.90625 25.960938 L 36.738281 22.160156 L 35.449219 23.109375 L 32.910156 17.410156 L 26.136719 23.730469 L 28.046875 19.269531 L 19.480469 24.886719 L 24.84375 19.394531 L 23.304688 16.914062 L 25.96875 17.289062 Z M 22.976562 14.976562 " fill-opacity="1" fill-rule="evenodd"/></g><g clip-path="url(#1574bb1a87)"><path fill="#a6a6a6" d="M 38.941406 5.8125 C 36.15625 2.421875 31.914062 0.273438 27.175781 0.273438 C 22.726562 0.273438 18.734375 2.175781 15.949219 5.1875 C 20.148438 5.273438 22.890625 5.355469 22.890625 5.519531 C 22.890625 5.644531 19.855469 5.765625 15.367188 5.851562 C 14.867188 6.46875 14.410156 7.128906 13.996094 7.832031 C 21.976562 7.832031 28.253906 8 28.253906 8.203125 C 28.253906 8.410156 21.726562 8.578125 13.578125 8.578125 C 12.539062 10.640625 11.957031 12.953125 11.957031 15.390625 C 11.957031 17.246094 12.289062 19.023438 12.910156 20.671875 L 23.886719 10.847656 L 28.753906 15.636719 L 28.339844 14.148438 L 30.167969 16.175781 L 32.910156 14.148438 L 40.769531 22.203125 C 41.808594 20.136719 42.390625 17.828125 42.390625 15.390625 C 42.390625 12 41.269531 8.867188 39.359375 6.347656 C 36.277344 6.261719 34.367188 6.179688 34.367188 6.058594 C 34.367188 5.933594 36.113281 5.851562 38.898438 5.765625 Z M 38.941406 5.8125 " fill-opacity="1" fill-rule="evenodd"/></g><path fill="#ffffff" d="M 63.1875 12.640625 C 63.453125 12.640625 63.621094 12.617188 63.695312 12.566406 C 63.777344 12.515625 63.828125 12.46875 63.84375 12.417969 C 63.871094 12.363281 63.882812 12.292969 63.882812 12.210938 L 63.882812 7.828125 C 63.882812 7.65625 63.828125 7.542969 63.722656 7.484375 C 63.621094 7.417969 63.441406 7.386719 63.1875 7.386719 L 63.1875 6.929688 L 67.683594 6.929688 L 67.84375 8.417969 L 67.25 8.429688 L 67.136719 7.964844 C 67.078125 7.742188 67.019531 7.601562 66.964844 7.546875 C 66.867188 7.441406 66.695312 7.386719 66.457031 7.386719 L 64.8125 7.386719 L 64.8125 9.785156 L 65.613281 9.785156 C 65.929688 9.785156 66.117188 9.765625 66.183594 9.722656 C 66.257812 9.683594 66.308594 9.625 66.332031 9.550781 C 66.359375 9.472656 66.371094 9.355469 66.371094 9.207031 L 66.914062 9.207031 L 66.914062 10.804688 L 66.371094 10.804688 C 66.371094 10.554688 66.320312 10.398438 66.222656 10.339844 C 66.121094 10.273438 65.917969 10.242188 65.613281 10.242188 L 64.8125 10.242188 L 64.8125 12.640625 L 66.566406 12.640625 C 66.890625 12.640625 67.105469 12.535156 67.210938 12.320312 C 67.242188 12.257812 67.277344 12.191406 67.3125 12.125 L 67.496094 11.605469 L 68.089844 11.605469 L 67.929688 13.097656 L 63.1875 13.097656 Z M 63.1875 12.640625 " fill-opacity="1" fill-rule="nonzero"/><path fill="#ffffff" d="M 70.242188 9.820312 C 70.160156 9.644531 70.085938 9.523438 70.019531 9.464844 C 69.953125 9.410156 69.820312 9.378906 69.609375 9.378906 L 69.609375 8.921875 L 71.828125 8.921875 L 71.828125 9.378906 C 71.519531 9.378906 71.332031 9.414062 71.257812 9.476562 C 71.1875 9.535156 71.1875 9.648438 71.257812 9.820312 L 72.199219 12.074219 L 73.1875 9.820312 C 73.261719 9.667969 73.25 9.558594 73.152344 9.488281 C 73.050781 9.414062 72.839844 9.378906 72.519531 9.378906 L 72.519531 8.921875 L 74.414062 8.921875 L 74.414062 9.378906 C 74.242188 9.378906 74.105469 9.414062 74.019531 9.488281 C 73.925781 9.558594 73.84375 9.667969 73.769531 9.820312 L 72.261719 13.097656 L 71.800781 13.097656 Z M 70.242188 9.820312 " fill-opacity="1" fill-rule="nonzero"/><path fill="#ffffff" d="M 79.921875 11.199219 L 77.050781 11.199219 C 77.050781 11.667969 77.164062 12.035156 77.386719 12.296875 C 77.609375 12.550781 77.882812 12.675781 78.214844 12.675781 C 78.660156 12.675781 78.984375 12.5 79.179688 12.136719 L 79.789062 12.136719 C 79.726562 12.425781 79.546875 12.671875 79.242188 12.875 C 78.945312 13.082031 78.539062 13.183594 78.03125 13.183594 C 77.523438 13.183594 77.089844 13.027344 76.71875 12.714844 C 76.277344 12.339844 76.0625 11.808594 76.0625 11.125 C 76.0625 10.445312 76.234375 9.894531 76.582031 9.476562 C 76.933594 9.058594 77.441406 8.847656 78.105469 8.847656 C 78.960938 8.847656 79.519531 9.195312 79.773438 9.882812 C 79.875 10.164062 79.921875 10.425781 79.921875 10.671875 C 79.921875 10.917969 79.921875 11.097656 79.921875 11.199219 Z M 78.96875 10.585938 C 78.96875 9.75 78.679688 9.328125 78.105469 9.328125 C 77.78125 9.328125 77.527344 9.457031 77.347656 9.710938 C 77.167969 9.957031 77.066406 10.300781 77.050781 10.734375 L 78.957031 10.734375 C 78.964844 10.683594 78.96875 10.632812 78.96875 10.585938 Z M 78.96875 10.585938 " fill-opacity="1" fill-rule="nonzero"/><path fill="#ffffff" d="M 82.078125 12.640625 C 82.316406 12.640625 82.464844 12.621094 82.523438 12.578125 C 82.589844 12.53125 82.625 12.476562 82.636719 12.417969 C 82.652344 12.363281 82.660156 12.292969 82.660156 12.210938 L 82.660156 9.945312 C 82.660156 9.75 82.640625 9.621094 82.597656 9.5625 C 82.566406 9.5 82.476562 9.464844 82.328125 9.464844 L 82.078125 9.464844 L 82.078125 9.023438 C 82.332031 9.023438 82.535156 9.003906 82.683594 8.960938 C 82.835938 8.921875 82.9375 8.894531 82.996094 8.875 C 83.058594 8.859375 83.125 8.847656 83.191406 8.847656 C 83.332031 8.847656 83.429688 8.894531 83.476562 8.972656 C 83.527344 9.054688 83.550781 9.1875 83.550781 9.367188 L 83.550781 9.453125 C 83.789062 9.175781 84.058594 8.992188 84.355469 8.898438 C 84.460938 8.867188 84.570312 8.847656 84.679688 8.847656 C 84.882812 8.847656 85.042969 8.90625 85.160156 9.023438 C 85.277344 9.140625 85.335938 9.28125 85.335938 9.453125 C 85.335938 9.625 85.277344 9.769531 85.160156 9.882812 C 85.054688 9.992188 84.917969 10.042969 84.765625 10.042969 C 84.605469 10.042969 84.480469 9.992188 84.382812 9.882812 C 84.28125 9.769531 84.234375 9.632812 84.246094 9.464844 C 84.136719 9.484375 84.015625 9.535156 83.886719 9.625 C 83.761719 9.707031 83.652344 9.828125 83.550781 9.980469 L 83.550781 12.171875 C 83.550781 12.28125 83.558594 12.367188 83.578125 12.429688 C 83.59375 12.488281 83.636719 12.539062 83.714844 12.578125 C 83.792969 12.621094 84.035156 12.640625 84.429688 12.640625 L 84.429688 13.097656 L 82.078125 13.097656 Z M 82.078125 12.640625 " fill-opacity="1" fill-rule="nonzero"/><path fill="#ffffff" d="M 91.128906 11.199219 L 88.257812 11.199219 C 88.257812 11.667969 88.367188 12.035156 88.589844 12.296875 C 88.8125 12.550781 89.089844 12.675781 89.421875 12.675781 C 89.867188 12.675781 90.1875 12.5 90.386719 12.136719 L 90.992188 12.136719 C 90.933594 12.425781 90.75 12.671875 90.449219 12.875 C 90.152344 13.082031 89.746094 13.183594 89.234375 13.183594 C 88.730469 13.183594 88.292969 13.027344 87.921875 12.714844 C 87.484375 12.339844 87.265625 11.808594 87.265625 11.125 C 87.265625 10.445312 87.441406 9.894531 87.785156 9.476562 C 88.140625 9.058594 88.648438 8.847656 89.308594 8.847656 C 90.167969 8.847656 90.722656 9.195312 90.980469 9.882812 C 91.078125 10.164062 91.128906 10.425781 91.128906 10.671875 C 91.128906 10.917969 91.128906 11.097656 91.128906 11.199219 Z M 90.175781 10.585938 C 90.175781 9.75 89.886719 9.328125 89.308594 9.328125 C 88.988281 9.328125 88.734375 9.457031 88.554688 9.710938 C 88.371094 9.957031 88.273438 10.300781 88.257812 10.734375 L 90.164062 10.734375 C 90.167969 10.683594 90.175781 10.632812 90.175781 10.585938 Z M 90.175781 10.585938 " fill-opacity="1" fill-rule="nonzero"/><path fill="#ffffff" d="M 95.585938 9.476562 C 95.445312 9.339844 95.214844 9.269531 94.894531 9.269531 C 94.578125 9.269531 94.363281 9.386719 94.25 9.613281 C 94.214844 9.679688 94.199219 9.753906 94.199219 9.835938 C 94.199219 9.917969 94.230469 10 94.300781 10.082031 C 94.363281 10.152344 94.453125 10.226562 94.558594 10.300781 C 94.664062 10.371094 94.78125 10.433594 94.90625 10.5 C 95.035156 10.566406 95.171875 10.640625 95.316406 10.71875 C 95.453125 10.792969 95.601562 10.875 95.761719 10.953125 C 96.335938 11.269531 96.625 11.617188 96.625 12 C 96.625 12.378906 96.476562 12.671875 96.179688 12.875 C 95.882812 13.082031 95.488281 13.183594 94.992188 13.183594 C 94.503906 13.183594 94.101562 13.097656 93.78125 12.921875 C 93.457031 12.746094 93.296875 12.515625 93.296875 12.234375 C 93.296875 12.085938 93.347656 11.960938 93.445312 11.851562 C 93.550781 11.75 93.683594 11.691406 93.839844 11.691406 C 93.996094 11.691406 94.125 11.742188 94.226562 11.839844 C 94.324219 11.9375 94.375 12.058594 94.375 12.199219 C 94.375 12.328125 94.328125 12.441406 94.238281 12.53125 C 94.460938 12.660156 94.734375 12.726562 95.054688 12.726562 C 95.382812 12.726562 95.613281 12.648438 95.746094 12.492188 C 95.796875 12.4375 95.820312 12.359375 95.820312 12.257812 C 95.820312 12.03125 95.570312 11.792969 95.066406 11.546875 C 94.710938 11.371094 94.449219 11.238281 94.273438 11.140625 C 93.707031 10.828125 93.421875 10.445312 93.421875 9.996094 C 93.421875 9.648438 93.5625 9.375 93.855469 9.167969 C 94.140625 8.957031 94.511719 8.847656 94.957031 8.847656 C 95.402344 8.847656 95.777344 8.933594 96.082031 9.097656 C 96.386719 9.261719 96.539062 9.472656 96.539062 9.734375 C 96.539062 9.894531 96.503906 10.007812 96.429688 10.082031 C 96.304688 10.210938 96.179688 10.277344 96.058594 10.277344 C 95.867188 10.277344 95.722656 10.226562 95.625 10.128906 C 95.523438 10.03125 95.476562 9.921875 95.476562 9.796875 C 95.476562 9.667969 95.511719 9.558594 95.585938 9.476562 Z M 95.585938 9.476562 " fill-opacity="1" fill-rule="nonzero"/><path fill="#ffffff" d="M 100.484375 13.183594 C 99.609375 13.183594 99.171875 12.703125 99.171875 11.742188 L 99.171875 9.6875 C 99.171875 9.582031 99.160156 9.511719 99.136719 9.476562 C 99.113281 9.4375 99.054688 9.414062 98.976562 9.414062 L 98.628906 9.414062 L 98.628906 8.921875 L 98.789062 8.921875 C 98.992188 8.921875 99.148438 8.859375 99.246094 8.726562 C 99.347656 8.597656 99.398438 8.382812 99.410156 8.085938 L 99.410156 7.71875 L 100.078125 7.71875 L 100.078125 8.921875 L 101.339844 8.921875 L 101.339844 9.414062 L 100.078125 9.414062 L 100.078125 11.730469 C 100.078125 12.242188 100.191406 12.542969 100.421875 12.640625 C 100.488281 12.664062 100.554688 12.675781 100.621094 12.675781 C 100.910156 12.675781 101.097656 12.441406 101.191406 11.964844 L 101.671875 11.964844 C 101.648438 12.53125 101.414062 12.90625 100.96875 13.082031 C 100.820312 13.148438 100.660156 13.183594 100.484375 13.183594 Z M 100.484375 13.183594 " fill-opacity="1" fill-rule="nonzero"/><path fill="#ed5b2d" d="M 73.558594 17.277344 C 73.558594 17.210938 73.589844 17.179688 73.660156 17.179688 L 74.265625 17.179688 C 74.320312 17.179688 74.351562 17.210938 74.351562 17.277344 L 74.351562 21.03125 C 74.351562 21.097656 74.320312 21.128906 74.265625 21.128906 L 73.660156 21.128906 C 73.589844 21.128906 73.558594 21.097656 73.558594 21.03125 L 73.558594 19.503906 C 73.558594 19.488281 73.546875 19.480469 73.523438 19.480469 L 72.273438 19.480469 C 72.253906 19.480469 72.246094 19.488281 72.246094 19.503906 L 72.246094 21.03125 C 72.246094 21.097656 72.214844 21.128906 72.148438 21.128906 L 71.542969 21.128906 C 71.472656 21.128906 71.441406 21.097656 71.441406 21.03125 L 71.441406 17.277344 C 71.441406 17.210938 71.472656 17.179688 71.542969 17.179688 L 72.148438 17.179688 C 72.214844 17.179688 72.246094 17.210938 72.246094 17.277344 L 72.246094 18.753906 C 72.246094 18.777344 72.253906 18.789062 72.273438 18.789062 L 73.523438 18.789062 C 73.546875 18.789062 73.558594 18.777344 73.558594 18.753906 Z M 73.558594 17.277344 " fill-opacity="1" fill-rule="nonzero"/><path fill="#ed5b2d" d="M 76.824219 21.179688 C 76.503906 21.179688 76.226562 21.097656 75.996094 20.933594 C 75.765625 20.761719 75.605469 20.53125 75.527344 20.242188 C 75.476562 20.070312 75.453125 19.882812 75.453125 19.675781 C 75.453125 19.449219 75.480469 19.246094 75.539062 19.074219 C 75.617188 18.796875 75.773438 18.578125 75.996094 18.421875 C 76.226562 18.257812 76.503906 18.175781 76.824219 18.175781 C 77.136719 18.175781 77.402344 18.257812 77.617188 18.421875 C 77.839844 18.578125 77.996094 18.789062 78.089844 19.0625 C 78.144531 19.242188 78.175781 19.441406 78.175781 19.664062 C 78.175781 19.863281 78.148438 20.050781 78.101562 20.230469 C 78.007812 20.527344 77.851562 20.761719 77.628906 20.933594 C 77.40625 21.097656 77.136719 21.179688 76.824219 21.179688 Z M 76.824219 20.488281 C 76.941406 20.488281 77.039062 20.453125 77.121094 20.378906 C 77.210938 20.304688 77.277344 20.203125 77.320312 20.070312 C 77.351562 19.964844 77.371094 19.832031 77.371094 19.675781 C 77.371094 19.515625 77.351562 19.378906 77.320312 19.269531 C 77.277344 19.140625 77.210938 19.042969 77.121094 18.976562 C 77.039062 18.902344 76.9375 18.863281 76.8125 18.863281 C 76.679688 18.863281 76.570312 18.902344 76.480469 18.976562 C 76.394531 19.042969 76.335938 19.140625 76.304688 19.269531 C 76.273438 19.378906 76.257812 19.515625 76.257812 19.675781 C 76.257812 19.824219 76.273438 19.957031 76.304688 20.070312 C 76.335938 20.203125 76.398438 20.304688 76.492188 20.378906 C 76.582031 20.453125 76.691406 20.488281 76.824219 20.488281 Z M 76.824219 20.488281 " fill-opacity="1" fill-rule="nonzero"/><path fill="#ed5b2d" d="M 80.421875 21.167969 C 80.164062 21.167969 79.941406 21.132812 79.75 21.066406 C 79.558594 20.992188 79.417969 20.894531 79.320312 20.773438 C 79.21875 20.644531 79.167969 20.496094 79.167969 20.328125 L 79.167969 20.304688 C 79.167969 20.238281 79.199219 20.207031 79.257812 20.207031 L 79.839844 20.207031 C 79.894531 20.207031 79.925781 20.214844 79.925781 20.230469 L 79.925781 20.28125 C 79.925781 20.363281 79.96875 20.433594 80.0625 20.488281 C 80.160156 20.546875 80.277344 20.574219 80.421875 20.574219 C 80.542969 20.574219 80.644531 20.550781 80.71875 20.5 C 80.796875 20.453125 80.839844 20.386719 80.839844 20.304688 C 80.839844 20.238281 80.808594 20.191406 80.742188 20.15625 C 80.671875 20.125 80.5625 20.089844 80.40625 20.046875 C 80.226562 19.996094 80.089844 19.957031 80 19.921875 C 79.75 19.84375 79.554688 19.738281 79.40625 19.617188 C 79.261719 19.492188 79.195312 19.320312 79.195312 19.097656 C 79.195312 18.820312 79.300781 18.601562 79.515625 18.433594 C 79.738281 18.269531 80.027344 18.1875 80.382812 18.1875 C 80.628906 18.1875 80.84375 18.230469 81.027344 18.3125 C 81.207031 18.382812 81.347656 18.492188 81.449219 18.628906 C 81.546875 18.773438 81.597656 18.925781 81.597656 19.097656 C 81.597656 19.121094 81.585938 19.144531 81.570312 19.160156 C 81.550781 19.167969 81.535156 19.171875 81.507812 19.171875 L 80.953125 19.171875 C 80.882812 19.171875 80.851562 19.160156 80.851562 19.136719 L 80.851562 19.097656 C 80.851562 19.019531 80.808594 18.949219 80.730469 18.890625 C 80.644531 18.832031 80.535156 18.804688 80.394531 18.804688 C 80.273438 18.804688 80.167969 18.828125 80.085938 18.875 C 80.003906 18.917969 79.960938 18.980469 79.960938 19.0625 C 79.960938 19.136719 80 19.195312 80.074219 19.234375 C 80.152344 19.265625 80.285156 19.304688 80.457031 19.34375 C 80.5625 19.367188 80.671875 19.398438 80.777344 19.429688 C 81.050781 19.515625 81.265625 19.617188 81.421875 19.738281 C 81.578125 19.863281 81.65625 20.042969 81.65625 20.28125 C 81.65625 20.558594 81.539062 20.777344 81.3125 20.933594 C 81.089844 21.089844 80.792969 21.167969 80.421875 21.167969 Z M 80.421875 21.167969 " fill-opacity="1" fill-rule="nonzero"/><path fill="#ed5b2d" d="M 84.351562 18.765625 C 84.351562 18.832031 84.316406 18.863281 84.25 18.863281 L 83.742188 18.863281 C 83.71875 18.863281 83.707031 18.875 83.707031 18.902344 L 83.707031 20.070312 C 83.707031 20.195312 83.730469 20.285156 83.78125 20.339844 C 83.835938 20.398438 83.921875 20.425781 84.042969 20.425781 L 84.191406 20.425781 C 84.253906 20.425781 84.289062 20.460938 84.289062 20.527344 L 84.289062 21.007812 C 84.289062 21.074219 84.253906 21.109375 84.191406 21.117188 C 84.046875 21.125 83.945312 21.128906 83.878906 21.128906 C 83.566406 21.128906 83.328125 21.078125 83.175781 20.96875 C 83.015625 20.863281 82.941406 20.667969 82.941406 20.378906 L 82.941406 18.902344 C 82.941406 18.875 82.925781 18.863281 82.902344 18.863281 L 82.617188 18.863281 C 82.550781 18.863281 82.519531 18.832031 82.519531 18.765625 L 82.519531 18.324219 C 82.519531 18.257812 82.550781 18.222656 82.617188 18.222656 L 82.902344 18.222656 C 82.925781 18.222656 82.941406 18.210938 82.941406 18.1875 L 82.941406 17.546875 C 82.941406 17.492188 82.96875 17.460938 83.039062 17.460938 L 83.621094 17.460938 C 83.675781 17.460938 83.707031 17.492188 83.707031 17.546875 L 83.707031 18.1875 C 83.707031 18.210938 83.71875 18.222656 83.742188 18.222656 L 84.25 18.222656 C 84.316406 18.222656 84.351562 18.257812 84.351562 18.324219 Z M 84.351562 18.765625 " fill-opacity="1" fill-rule="nonzero"/><path fill="#ed5b2d" d="M 85.851562 17.953125 C 85.703125 17.953125 85.582031 17.910156 85.492188 17.816406 C 85.398438 17.730469 85.355469 17.613281 85.355469 17.472656 C 85.355469 17.335938 85.398438 17.222656 85.492188 17.128906 C 85.582031 17.039062 85.703125 16.992188 85.851562 16.992188 C 86 16.992188 86.113281 17.039062 86.195312 17.128906 C 86.285156 17.222656 86.332031 17.335938 86.332031 17.472656 C 86.332031 17.613281 86.285156 17.730469 86.195312 17.816406 C 86.113281 17.910156 86 17.953125 85.851562 17.953125 Z M 85.539062 21.128906 C 85.480469 21.128906 85.453125 21.097656 85.453125 21.03125 L 85.453125 18.324219 C 85.453125 18.257812 85.480469 18.222656 85.539062 18.222656 L 86.148438 18.222656 C 86.210938 18.222656 86.246094 18.257812 86.246094 18.324219 L 86.246094 21.03125 C 86.246094 21.097656 86.210938 21.128906 86.148438 21.128906 Z M 85.539062 21.128906 " fill-opacity="1" fill-rule="nonzero"/><path fill="#ed5b2d" d="M 88.972656 18.175781 C 89.273438 18.175781 89.519531 18.269531 89.703125 18.457031 C 89.890625 18.640625 89.984375 18.890625 89.984375 19.210938 L 89.984375 21.03125 C 89.984375 21.097656 89.953125 21.128906 89.886719 21.128906 L 89.28125 21.128906 C 89.210938 21.128906 89.179688 21.097656 89.179688 21.03125 L 89.179688 19.367188 C 89.179688 19.222656 89.136719 19.105469 89.058594 19.011719 C 88.972656 18.914062 88.863281 18.863281 88.722656 18.863281 C 88.582031 18.863281 88.464844 18.914062 88.378906 19.011719 C 88.292969 19.105469 88.253906 19.222656 88.253906 19.367188 L 88.253906 21.03125 C 88.253906 21.097656 88.21875 21.128906 88.152344 21.128906 L 87.546875 21.128906 C 87.480469 21.128906 87.449219 21.097656 87.449219 21.03125 L 87.449219 18.324219 C 87.449219 18.257812 87.480469 18.222656 87.546875 18.222656 L 88.152344 18.222656 C 88.21875 18.222656 88.253906 18.257812 88.253906 18.324219 L 88.253906 18.484375 C 88.253906 18.5 88.253906 18.507812 88.253906 18.507812 C 88.257812 18.507812 88.269531 18.503906 88.277344 18.496094 C 88.433594 18.28125 88.664062 18.175781 88.972656 18.175781 Z M 88.972656 18.175781 " fill-opacity="1" fill-rule="nonzero"/><path fill="#ed5b2d" d="M 92.90625 18.324219 C 92.90625 18.257812 92.933594 18.222656 93.003906 18.222656 L 93.609375 18.222656 C 93.675781 18.222656 93.710938 18.257812 93.710938 18.324219 L 93.710938 20.871094 C 93.710938 21.363281 93.5625 21.710938 93.277344 21.917969 C 92.996094 22.128906 92.632812 22.238281 92.1875 22.238281 C 92.0625 22.238281 91.917969 22.226562 91.753906 22.210938 C 91.695312 22.210938 91.667969 22.179688 91.667969 22.113281 L 91.691406 21.585938 C 91.691406 21.558594 91.699219 21.535156 91.714844 21.511719 C 91.742188 21.492188 91.769531 21.488281 91.804688 21.5 C 91.941406 21.523438 92.054688 21.535156 92.148438 21.535156 C 92.386719 21.535156 92.574219 21.480469 92.707031 21.375 C 92.835938 21.269531 92.90625 21.097656 92.90625 20.859375 C 92.90625 20.851562 92.898438 20.847656 92.890625 20.847656 C 92.882812 20.847656 92.875 20.851562 92.867188 20.859375 C 92.726562 21.007812 92.515625 21.078125 92.234375 21.078125 C 91.988281 21.078125 91.757812 21.023438 91.554688 20.90625 C 91.347656 20.785156 91.203125 20.59375 91.121094 20.328125 C 91.0625 20.15625 91.035156 19.933594 91.035156 19.664062 C 91.035156 19.367188 91.066406 19.128906 91.132812 18.9375 C 91.214844 18.710938 91.351562 18.527344 91.542969 18.382812 C 91.730469 18.246094 91.953125 18.175781 92.199219 18.175781 C 92.488281 18.175781 92.710938 18.261719 92.867188 18.433594 C 92.875 18.441406 92.882812 18.445312 92.890625 18.445312 C 92.898438 18.445312 92.90625 18.441406 92.90625 18.421875 Z M 92.855469 20.121094 C 92.886719 20.007812 92.90625 19.847656 92.90625 19.652344 C 92.90625 19.539062 92.898438 19.449219 92.890625 19.382812 C 92.882812 19.316406 92.871094 19.253906 92.855469 19.195312 C 92.820312 19.097656 92.761719 19.019531 92.683594 18.964844 C 92.597656 18.898438 92.5 18.863281 92.382812 18.863281 C 92.265625 18.863281 92.167969 18.898438 92.085938 18.964844 C 92.011719 19.019531 91.957031 19.097656 91.925781 19.195312 C 91.867188 19.3125 91.839844 19.46875 91.839844 19.664062 C 91.839844 19.871094 91.863281 20.019531 91.914062 20.109375 C 91.945312 20.214844 92.003906 20.300781 92.085938 20.367188 C 92.167969 20.425781 92.273438 20.453125 92.398438 20.453125 C 92.511719 20.453125 92.609375 20.425781 92.695312 20.367188 C 92.773438 20.300781 92.832031 20.21875 92.855469 20.121094 Z M 92.855469 20.121094 " fill-opacity="1" fill-rule="nonzero"/></svg>