<?xml version="1.0" standalone="no"?>
<!DOCTYPE svg PUBLIC "-//W3C//DTD SVG 20010904//EN"
 "http://www.w3.org/TR/2001/REC-SVG-20010904/DTD/svg10.dtd">
<svg version="1.0" xmlns="http://www.w3.org/2000/svg"
 width="500.000000pt" height="500.000000pt" viewBox="0 0 500.000000 500.000000"
 preserveAspectRatio="xMidYMid meet">

<g transform="translate(0.000000,500.000000) scale(0.100000,-0.100000)"
fill="#000000" stroke="none">
<path d="M3700 3255 c0 -249 4 -435 9 -435 12 0 158 167 226 259 l55 74 0 269
0 268 -145 0 -145 0 0 -435z"/>
<path d="M3250 2914 l0 -446 38 23 c43 26 141 93 206 141 l45 33 1 348 0 347
-145 0 -145 0 0 -446z"/>
<path d="M2810 2875 c0 -100 -4 -175 -9 -175 -31 0 -72 40 -98 94 -38 80 -60
106 -89 106 -17 0 -25 7 -30 26 -6 23 -10 25 -37 20 -17 -3 -38 -13 -47 -21
-9 -8 -19 -15 -22 -15 -3 0 -25 30 -48 67 l-43 66 -61 -65 c-90 -97 -174 -164
-235 -187 -29 -11 -71 -32 -91 -46 -37 -26 -39 -26 -69 -10 -18 9 -36 13 -40
10 -16 -9 -61 14 -61 32 0 11 -24 -9 -65 -54 -36 -39 -82 -82 -103 -94 -20
-12 -58 -39 -83 -60 -26 -21 -72 -49 -103 -63 l-56 -25 -15 22 -15 22 -48 -28
c-93 -56 -200 -102 -367 -158 l-170 -58 1021 -1 1021 0 74 30 c172 71 262 120
219 120 -5 0 -19 9 -30 20 -19 19 -20 33 -20 310 l0 290 -140 0 -140 0 0 -175z
m-410 59 c6 -14 10 -36 10 -49 0 -15 11 -32 30 -45 37 -26 38 -52 5 -74 -14
-9 -32 -33 -40 -54 -9 -20 -30 -52 -48 -71 -29 -30 -29 -32 -7 -21 13 7 48 35
76 62 55 52 74 59 74 27 0 -41 18 -59 60 -59 22 0 40 -3 40 -6 0 -9 -41 -42
-74 -60 -16 -9 -48 -30 -70 -46 l-41 -30 35 7 c19 3 67 22 107 40 l72 33 26
-34 c15 -20 37 -39 49 -44 13 -5 -5 -6 -47 -3 -61 5 -73 3 -123 -22 -48 -25
-69 -29 -148 -30 -75 -2 -100 -6 -141 -27 -50 -25 -125 -43 -125 -30 0 4 28
20 63 35 55 24 183 114 175 123 -7 7 -75 -22 -102 -43 -26 -21 -52 -30 -126
-46 -22 -5 -21 -3 10 21 100 75 168 163 191 246 l8 31 -27 -32 c-15 -18 -40
-49 -55 -68 -17 -20 -38 -35 -50 -35 -19 0 -17 4 15 36 38 36 82 132 72 158
-3 8 7 23 25 35 18 13 35 38 42 62 14 45 26 49 39 13z m-597 -338 c-16 -17
-39 -44 -53 -59 l-25 -28 29 11 c16 6 42 21 59 34 l31 24 13 -25 c11 -22 11
-27 -4 -40 -16 -13 -16 -13 4 -4 31 16 37 14 69 -16 16 -16 40 -35 54 -44 24
-16 22 -16 -34 -8 -61 8 -96 -2 -174 -52 -18 -12 -54 -27 -80 -35 -33 -9 -41
-9 -28 -1 10 7 31 22 46 35 16 12 43 29 62 37 l33 14 -30 0 c-16 0 -39 -6 -49
-14 -11 -8 -29 -15 -40 -15 -17 1 -11 10 29 46 l50 45 -48 -21 c-26 -12 -53
-20 -59 -18 -6 2 18 37 53 78 35 41 56 71 47 67 -24 -9 -23 6 1 27 11 10 25
31 32 48 l12 30 14 -42 c14 -41 14 -43 -14 -74z m-419 -130 c-5 -21 -2 -25 21
-28 26 -3 25 -4 -17 -32 -24 -16 -34 -25 -23 -21 43 16 87 26 91 22 3 -3 -17
-17 -43 -32 -54 -30 -115 -44 -218 -49 l-70 -4 35 18 c19 11 47 19 61 20 29 0
124 39 116 47 -3 2 -15 -1 -27 -7 -11 -6 -33 -10 -48 -8 -24 3 -20 6 30 27 35
15 60 33 67 47 14 32 33 31 25 0z"/>
<path d="M3930 2758 c-56 -99 -117 -189 -187 -275 -42 -52 -43 -54 -43 -128
l0 -75 145 0 145 0 0 285 c0 157 -2 285 -4 285 -2 0 -27 -42 -56 -92z"/>
<path d="M1080 1830 l0 -240 155 0 155 0 0 45 0 45 -105 0 -105 0 0 55 0 55
96 0 95 0 -3 43 -3 42 -92 3 -93 3 0 49 0 50 106 0 105 0 -3 43 -3 42 -152 3
-153 3 0 -241z"/>
<path d="M1426 2048 c4 -13 44 -120 90 -238 l82 -215 54 -3 53 -3 88 229 c48
126 87 234 87 241 0 7 -19 11 -50 11 -59 0 -55 6 -125 -188 -27 -72 -51 -129
-54 -126 -3 3 -31 73 -62 157 l-57 152 -57 3 c-55 3 -56 2 -49 -20z"/>
<path d="M1930 1830 l0 -240 160 0 160 0 0 45 0 45 -105 0 -105 0 0 55 0 55
90 0 90 0 0 45 0 45 -90 0 -90 0 0 50 0 50 100 0 100 0 0 45 0 45 -155 0 -155
0 0 -240z"/>
<path d="M2328 2064 c-5 -4 -8 -112 -8 -241 l0 -233 55 0 55 0 0 76 0 75 37
-3 c35 -3 40 -8 78 -73 l41 -70 63 -3 63 -3 -23 38 c-13 21 -35 58 -50 83
l-28 45 29 18 c42 27 63 79 58 144 -9 110 -64 144 -242 151 -67 2 -124 1 -128
-4z m246 -114 c27 -27 25 -78 -3 -102 -17 -13 -40 -18 -82 -18 l-59 0 0 76 0
77 62 -7 c42 -4 69 -13 82 -26z"/>
<path d="M2787 2063 c-4 -3 -7 -111 -7 -240 l0 -233 160 0 160 0 0 45 0 45
-105 0 -105 0 0 55 0 55 96 0 95 0 -3 43 -3 42 -92 3 -93 3 0 49 0 50 100 0
100 0 0 45 0 45 -148 0 c-82 0 -152 -3 -155 -7z"/>
<path d="M3219 2050 c-73 -39 -90 -142 -33 -201 20 -21 54 -38 111 -55 46 -14
90 -32 98 -40 35 -36 3 -84 -57 -84 -38 0 -88 32 -88 56 0 10 -13 14 -50 14
-46 0 -50 -2 -50 -24 0 -33 39 -86 80 -110 49 -29 159 -29 215 0 69 36 94 117
55 181 -22 37 -69 64 -158 88 -72 21 -101 49 -83 84 24 44 121 35 143 -14 10
-22 17 -25 61 -25 l50 0 -7 32 c-9 47 -31 75 -76 98 -53 27 -160 27 -211 0z"/>
<path d="M3557 2063 c-4 -3 -7 -26 -7 -49 l0 -43 78 -3 77 -3 3 -187 2 -188
50 0 50 0 0 190 0 190 75 0 75 0 0 50 0 50 -198 0 c-109 0 -202 -3 -205 -7z"/>
<path d="M1843 1375 c0 -33 2 -48 4 -32 4 24 8 27 43 27 35 0 39 -3 43 -27 2
-16 4 -1 5 32 0 39 -2 51 -7 35 -5 -20 -14 -26 -43 -28 -33 -3 -37 -1 -41 25
-2 15 -4 1 -4 -32z"/>
<path d="M2074 1405 c-13 -21 -15 -31 -6 -50 20 -43 79 -45 106 -2 14 23 -4
71 -29 75 -18 3 -18 2 3 -13 24 -18 29 -54 10 -73 -17 -17 -54 -15 -72 4 -21
21 -20 40 4 64 11 11 16 20 10 20 -5 0 -17 -11 -26 -25z"/>
<path d="M2307 1423 c-16 -15 -5 -35 29 -49 42 -18 40 -39 -4 -39 -16 0 -28
-3 -25 -7 7 -12 48 -9 61 4 21 21 13 36 -23 48 -35 11 -46 34 -22 43 6 3 7 6
1 6 -6 1 -14 -2 -17 -6z"/>
<path d="M2528 1388 c5 -71 10 -77 11 -15 0 31 -2 57 -7 57 -4 0 -6 -19 -4
-42z"/>
<path d="M2693 1375 c0 -33 2 -45 4 -27 2 18 2 45 0 60 -2 15 -4 0 -4 -33z"/>
<path d="M2842 1373 l1 -58 6 49 6 48 34 -46 c19 -25 36 -46 38 -46 2 0 2 26
1 58 -1 56 -1 56 -7 14 l-6 -44 -30 41 c-16 22 -33 41 -37 41 -5 0 -7 -26 -6
-57z"/>
<path d="M3076 1414 c-39 -39 4 -104 59 -90 19 5 25 12 24 34 l-1 27 -7 -25
c-8 -30 -42 -38 -65 -15 -22 23 -20 51 6 69 12 9 17 16 11 16 -6 0 -19 -7 -27
-16z"/>
</g>
</svg>
